# xmcd
#
# Track frame offsets: 
#        150
#        12822
#        29732
#        45340
#        60400
#        78817
#        96842
#        112235
#        127192
#        141915
#        157165
#        176080
#        189915
#        209042
#        224240
#        236300
#        254250
#        269492
#        286860
#        302442
#
# Disc length: 4217 seconds
#
# Revision: 7
# Processed by: cddbd v1.5.2PL0 Copyright (c) Steve Scherf et al.
# Submitted via: ExactAudioCopy v1.3
#
DISCID=2a107714
DTITLE=Dolly Parton - I Will Always Love You - The Essential Dolly Par
DTITLE=ton Vol. 1
DYEAR=1995
DGENRE=Country
TTITLE0=9 To 5
TTITLE1=Single Women
TTITLE2=Think About Love
TTITLE3=But You Know I Love You
TTITLE4=Do I Ever Cross Your Mind
TTITLE5=Real Love
TTITLE6=You're The Only One
TTITLE7=Sweet Summer Lovin'
TTITLE8=Heartbreak Express
TTITLE9=Tie Our Love (In A Double Knot)
TTITLE10=Islands In The Stream (Duet With Kenny Rogers)
TTITLE11=Two Doors Down
TTITLE12=God Won't Get You
TTITLE13=Don't Call It Love
TTITLE14=To Daddy (Original Version)
TTITLE15=Starting Over Again
TTITLE16=Tennessee Homesick Blues
TTITLE17=Save The Last Dance For Me
TTITLE18=Old Flames Can't Hold A Candle To You
TTITLE19=I Will Always Love You (From The Universal Film "The Best Lit
TTITLE19=tle Whorehouse In Texas")
EXTD=
EXTT0=
EXTT1=
EXTT2=
EXTT3=
EXTT4=
EXTT5=
EXTT6=
EXTT7=
EXTT8=
EXTT9=
EXTT10=
EXTT11=
EXTT12=
EXTT13=
EXTT14=
EXTT15=
EXTT16=
EXTT17=
EXTT18=
EXTT19=
PLAYORDER=
